<svg xmlns="http://www.w3.org/2000/svg" viewBox="-5378 945 13.333 13.707">
  <defs>
    <style>
      .cls-1 {
        fill: #989898;
      }
    </style>
  </defs>
  <path id="ic_settings_24px" class="cls-1" d="M14.031,9.525a4.726,4.726,0,0,0,0-1.343l1.446-1.131a.346.346,0,0,0,.082-.439L14.189,4.241a.344.344,0,0,0-.418-.151l-1.707.685A5.007,5.007,0,0,0,10.906,4.1l-.26-1.816A.334.334,0,0,0,10.31,2H7.568a.334.334,0,0,0-.336.288L6.972,4.1a5.266,5.266,0,0,0-1.158.672L4.107,4.09a.334.334,0,0,0-.418.151L2.318,6.613a.338.338,0,0,0,.082.439L3.847,8.182a5.435,5.435,0,0,0-.048.672,5.435,5.435,0,0,0,.048.672L2.4,10.656a.346.346,0,0,0-.082.439l1.371,2.371a.344.344,0,0,0,.418.151l1.707-.685a5.007,5.007,0,0,0,1.158.672l.26,1.816a.334.334,0,0,0,.336.288H10.31a.334.334,0,0,0,.336-.288l.26-1.816a5.266,5.266,0,0,0,1.158-.672l1.707.685a.334.334,0,0,0,.418-.151l1.371-2.371a.346.346,0,0,0-.082-.439ZM8.939,11.252a2.4,2.4,0,1,1,2.4-2.4A2.4,2.4,0,0,1,8.939,11.252Z" transform="translate(-5380.271 943)"/>
</svg>
