<svg xmlns="http://www.w3.org/2000/svg" viewBox="-2112 7612 20 14">
  <defs>
    <style>
      .cls-1 {
        fill: #989898;
      }
    </style>
  </defs>
  <path id="ic_keyboard_24px" class="cls-1" d="M20,5H4A2,2,0,0,0,2.01,7L2,17a2.006,2.006,0,0,0,2,2H20a2.006,2.006,0,0,0,2-2V7A2.006,2.006,0,0,0,20,5ZM11,8h2v2H11Zm0,3h2v2H11ZM8,8h2v2H8Zm0,3h2v2H8ZM7,13H5V11H7Zm0-3H5V8H7Zm9,7H8V15h8Zm0-4H14V11h2Zm0-3H14V8h2Zm3,3H17V11h2Zm0-3H17V8h2Z" transform="translate(-2114 7607)"/>
</svg>
