<svg xmlns="http://www.w3.org/2000/svg" viewBox="-11853.787 3277 15 15">
  <defs>
    <style>
      .cls-1 {
        fill: #e6e6e6;
      }
    </style>
  </defs>
  <path id="ic_local_phone_24px" class="cls-1" d="M6.017,9.492a12.624,12.624,0,0,0,5.492,5.492l1.833-1.833a.829.829,0,0,1,.85-.2,9.506,9.506,0,0,0,2.975.475.836.836,0,0,1,.833.833v2.908a.836.836,0,0,1-.833.833A14.165,14.165,0,0,1,3,3.833.836.836,0,0,1,3.833,3H6.75a.836.836,0,0,1,.833.833,9.467,9.467,0,0,0,.475,2.975.836.836,0,0,1-.208.85Z" transform="translate(-11856.787 3274)"/>
</svg>
