<svg xmlns="http://www.w3.org/2000/svg" viewBox="-13740.506 1570 18.114 16">
  <defs>
    <style>
      .cls-1 {
        fill: #858789;
      }
    </style>
  </defs>
  <path id="ic_lock_outline_24px" class="cls-1" d="M13.057,13.19c1.245,0,2.264-.686,2.264-1.524s-1.019-1.524-2.264-1.524-2.264.686-2.264,1.524S11.812,13.19,13.057,13.19ZM19.85,6.333H18.718V4.81c0-2.1-2.536-3.81-5.661-3.81S7.4,2.707,7.4,4.81V6.333H6.264C5.019,6.333,4,7.019,4,7.857v7.619C4,16.314,5.019,17,6.264,17H19.85c1.245,0,2.264-.686,2.264-1.524V7.857C22.115,7.019,21.1,6.333,19.85,6.333ZM9.548,4.81c0-1.3,1.574-2.362,3.51-2.362s3.51,1.059,3.51,2.362V6.333H9.548Zm10.3,10.667H6.264V7.857H19.85Z" transform="translate(-13744.506 1569)"/>
</svg>
