<svg xmlns="http://www.w3.org/2000/svg" viewBox="-13740.506 1356 18.114 16">
  <defs>
    <style>
      .cls-1 {
        fill: #858789;
      }
    </style>
  </defs>
  <path id="ic_person_outline_24px" class="cls-1" d="M13.057,5.9A2.251,2.251,0,0,1,15.435,8a2.251,2.251,0,0,1-2.378,2.1A2.251,2.251,0,0,1,10.68,8a2.251,2.251,0,0,1,2.378-2.1m0,9c3.363,0,6.906,1.46,6.906,2.1v1.1H6.151V17c0-.64,3.544-2.1,6.906-2.1m0-10.9A4.288,4.288,0,0,0,8.529,8a4.288,4.288,0,0,0,4.529,4,4.288,4.288,0,0,0,4.529-4A4.288,4.288,0,0,0,13.057,4Zm0,9C10.034,13,4,14.34,4,17v3H22.115V17C22.115,14.34,16.08,13,13.057,13Z" transform="translate(-13744.506 1352)"/>
</svg>
