<svg xmlns="http://www.w3.org/2000/svg" viewBox="-13740.506 1514 18.114 16">
  <defs>
    <style>
      .cls-1 {
        fill: #858789;
      }
    </style>
  </defs>
  <path id="ic_phone_24px" class="cls-1" d="M6.643,9.924a14.483,14.483,0,0,0,6.632,5.858l2.214-1.956a1.1,1.1,0,0,1,1.027-.213,12.872,12.872,0,0,0,3.593.507.956.956,0,0,1,1.006.889v3.1A.956.956,0,0,1,20.108,19C10.658,19,3,12.236,3,3.889A.956.956,0,0,1,4.006,3H7.529a.956.956,0,0,1,1.006.889,9.029,9.029,0,0,0,.574,3.173.821.821,0,0,1-.252.907Z" transform="translate(-13743.506 1511)"/>
</svg>
