<svg xmlns="http://www.w3.org/2000/svg" viewBox="-3545 6186 20 20.561">
  <defs>
    <style>
      .cls-1 {
        fill: #707070;
      }
    </style>
  </defs>
  <path id="ic_settings_24px" class="cls-1" d="M19.911,13.288a8.012,8.012,0,0,0,.072-1.007,8.012,8.012,0,0,0-.072-1.007l2.169-1.7a.519.519,0,0,0,.123-.658L20.148,5.362a.517.517,0,0,0-.627-.226l-2.56,1.028a7.511,7.511,0,0,0-1.737-1.007l-.391-2.724a.5.5,0,0,0-.5-.432H10.217a.5.5,0,0,0-.5.432L9.322,5.156A7.9,7.9,0,0,0,7.585,6.164L5.025,5.136a.5.5,0,0,0-.627.226L2.342,8.919a.507.507,0,0,0,.123.658l2.169,1.7a8.153,8.153,0,0,0-.072,1.007,8.153,8.153,0,0,0,.072,1.007l-2.169,1.7a.519.519,0,0,0-.123.658L4.4,19.2a.517.517,0,0,0,.627.226L7.585,18.4A7.511,7.511,0,0,0,9.322,19.4l.391,2.724a.5.5,0,0,0,.5.432h4.112a.5.5,0,0,0,.5-.432l.391-2.724A7.9,7.9,0,0,0,16.961,18.4l2.56,1.028a.5.5,0,0,0,.627-.226L22.2,15.642a.519.519,0,0,0-.123-.658Zm-7.638,2.591a3.6,3.6,0,1,1,3.6-3.6A3.6,3.6,0,0,1,12.273,15.879Z" transform="translate(-3547.271 6184)"/>
</svg>
