<svg xmlns="http://www.w3.org/2000/svg" viewBox="-5888.63 3274 18.112 16">
  <defs>
    <style>
      .cls-1 {
        fill: #e6e6e6;
      }
    </style>
  </defs>
  <path id="ic_lock_outline_24px" class="cls-1" d="M13.056,13.19c1.245,0,2.264-.686,2.264-1.524s-1.019-1.524-2.264-1.524-2.264.686-2.264,1.524S11.811,13.19,13.056,13.19Zm6.792-6.857H18.716V4.81c0-2.1-2.536-3.81-5.66-3.81S7.4,2.707,7.4,4.81V6.333H6.264C5.019,6.333,4,7.019,4,7.857v7.619C4,16.314,5.019,17,6.264,17H19.848c1.245,0,2.264-.686,2.264-1.524V7.857C22.112,7.019,21.093,6.333,19.848,6.333ZM9.547,4.81c0-1.3,1.573-2.362,3.509-2.362s3.509,1.059,3.509,2.362V6.333H9.547Zm10.3,10.667H6.264V7.857H19.848Z" transform="translate(-5892.63 3273)"/>
</svg>
