<svg xmlns="http://www.w3.org/2000/svg" viewBox="-11750.293 3021 60 78.75">
  <defs>
    <style>
      .cls-1 {
        fill: #fff;
      }
    </style>
  </defs>
  <path id="ic_lock_outline_24px" class="cls-1" d="M34,61a7.5,7.5,0,1,0-7.5-7.5A7.522,7.522,0,0,0,34,61ZM56.5,27.25H52.75v-7.5a18.75,18.75,0,0,0-37.5,0v7.5H11.5A7.522,7.522,0,0,0,4,34.75v37.5a7.522,7.522,0,0,0,7.5,7.5h45a7.522,7.522,0,0,0,7.5-7.5V34.75A7.522,7.522,0,0,0,56.5,27.25Zm-34.125-7.5a11.625,11.625,0,0,1,23.25,0v7.5H22.375ZM56.5,72.25h-45V34.75h45Z" transform="translate(-11754.293 3020)"/>
</svg>
