<svg xmlns="http://www.w3.org/2000/svg" viewBox="-4964 952 35 38.889">
  <defs>
    <style>
      .cls-1 {
        fill: #fff;
      }
    </style>
  </defs>
  <path id="ic_receipt_24px" class="cls-1" d="M32.167,31.167H8.833V27.278H32.167Zm0-7.778H8.833V19.5H32.167Zm0-7.778H8.833V11.722H32.167ZM3,40.889l2.917-2.917,2.917,2.917,2.917-2.917,2.917,2.917,2.917-2.917L20.5,40.889l2.917-2.917,2.917,2.917,2.917-2.917,2.917,2.917,2.917-2.917L38,40.889V2L35.083,4.917,32.167,2,29.25,4.917,26.333,2,23.417,4.917,20.5,2,17.583,4.917,14.667,2,11.75,4.917,8.833,2,5.917,4.917,3,2Z" transform="translate(-4967 950)"/>
</svg>
