<svg xmlns="http://www.w3.org/2000/svg" viewBox="-9957.541 9414 16.084 16.084">
  <defs>
    <style>
      .cls-1 {
        fill: #357aae;
      }
    </style>
  </defs>
  <path id="ic_local_phone_24px" class="cls-1" d="M6.235,9.961a13.536,13.536,0,0,0,5.889,5.889l1.966-1.966A.888.888,0,0,1,15,13.669a10.193,10.193,0,0,0,3.19.509.9.9,0,0,1,.894.894v3.119a.9.9,0,0,1-.894.894A15.189,15.189,0,0,1,3,3.894.9.9,0,0,1,3.894,3H7.021a.9.9,0,0,1,.894.894,10.151,10.151,0,0,0,.509,3.19A.9.9,0,0,1,8.2,8Z" transform="translate(-9960.541 9411)"/>
</svg>
