<svg xmlns="http://www.w3.org/2000/svg" viewBox="-10048 7569.276 16 16.809">
  <defs>
    <style>
      .cls-1 {
        fill: #e6e6e6;
      }
    </style>
  </defs>
  <path id="ic_person_outline_24px" class="cls-1" d="M12,6A2.155,2.155,0,0,1,14.1,8.2a2.1,2.1,0,1,1-4.2,0A2.155,2.155,0,0,1,12,6m0,9.455c2.97,0,6.1,1.534,6.1,2.206v1.156H5.9V17.658c0-.672,3.13-2.206,6.1-2.206M12,4A4.1,4.1,0,0,0,8,8.2a4.1,4.1,0,0,0,4,4.2,4.1,4.1,0,0,0,4-4.2A4.1,4.1,0,0,0,12,4Zm0,9.455c-2.67,0-8,1.408-8,4.2v3.152H20V17.658C20,14.863,14.67,13.455,12,13.455Z" transform="translate(-10052 7565.276)"/>
</svg>
